<svg width="16" height="16" viewBox="0 0 16 16" fill="#141414" xmlns="http://www.w3.org/2000/svg">
<path d="M6.63867 0.516901C6.96982 0.517165 7.23926 0.785303 7.23926 1.11651C7.23918 1.44765 6.96977 1.71586 6.63867 1.71612L2.31055 1.71612C1.69754 1.71615 1.20022 2.21347 1.2002 2.82647L1.2002 9.63702C1.20028 10.25 1.69758 10.7473 2.31055 10.7474L9.12109 10.7474C9.73386 10.7471 10.2314 10.2498 10.2314 9.63702L10.2314 5.63116C10.2316 5.29992 10.4998 5.03159 10.8311 5.03155C11.1621 5.03181 11.4305 5.30006 11.4307 5.63116L11.4307 9.63702C11.4306 10.9126 10.3966 11.9463 9.12109 11.9466L2.31055 11.9466C1.03484 11.9466 8.0931e-05 10.9127 0 9.63702L0 2.82647C2.4872e-05 1.55073 1.0348 0.516926 2.31055 0.516901L6.63867 0.516901Z" transform="translate(1.7305 1.8001)"/>
<path d="M11.4443 0.177057C11.6779 -0.0577815 12.058 -0.0592698 12.293 0.174128C12.5279 0.407588 12.5291 0.787688 12.2959 1.02276L5.80176 7.55889C5.6892 7.67215 5.53564 7.73557 5.37598 7.73565C5.21643 7.73556 5.06369 7.672 4.95117 7.55889L3.22461 5.82159C2.9914 5.58657 2.99278 5.20742 3.22754 4.97393C3.4626 4.7406 3.84267 4.74096 4.07617 4.97589L5.37598 6.28448L11.4443 0.177057Z" transform="translate(1.7305 1.8001)"/>
</svg>
