<svg width="16" height="16" viewBox="0 0 16 16" fill="#141414" xmlns="http://www.w3.org/2000/svg">
<path d="M11.4316 2.77344L11.4316 2.16504C11.4316 1.70388 11.0578 1.33008 10.5967 1.33008L7.06836 1.33008L7.06836 9.87109L7.58496 9.87109C7.95223 9.87109 8.25 10.1689 8.25 10.5361C8.2499 10.9033 7.95217 11.2012 7.58496 11.2012L5.22168 11.2012C4.85447 11.2012 4.55674 10.9033 4.55664 10.5361C4.55664 10.1689 4.85441 9.87109 5.22168 9.87109L5.73828 9.87109L5.73828 1.33008L2.16504 1.33008C1.70403 1.33017 1.33018 1.70401 1.33008 2.16504L1.33008 2.97852C1.32998 3.34572 1.03223 3.64356 0.665039 3.64355C0.297878 3.64348 9.7973e-05 3.34564 0 2.97852L0 2.16504C0.000252354 0.969578 0.9696 9.28173e-05 2.16504 0L10.5967 0C11.7924 0 12.7617 0.969342 12.7617 2.16504L12.7617 2.77344C12.7616 3.1406 12.4639 3.43848 12.0967 3.43848C11.7296 3.43833 11.4318 3.14051 11.4316 2.77344Z" transform="matrix(-1 0 0 1 14.3809 2.3995)"/>
</svg>
