<svg width="16" height="16" viewBox="0 0 16 16" fill="#141414" xmlns="http://www.w3.org/2000/svg">
<path d="M4.88204 6.5C7.57812 6.50011 9.76374 8.68576 9.76387 11.3818C9.76386 11.4092 9.76335 11.439 9.7629 11.4658C9.75901 11.6833 9.64345 11.8838 9.45723 11.9961C8.12061 12.8007 6.5541 13.2636 4.88204 13.2637C3.20998 13.2636 1.64345 12.8008 0.306842 11.9961C0.120694 11.8838 0.0040877 11.6833 0.000201707 11.4658C-0.000252903 11.4384 0.000203248 11.4098 0.000201707 11.3818C0.000333618 8.68583 2.18605 6.50022 4.88204 6.5ZM4.88204 7.76367C2.98241 7.76388 1.42521 9.22842 1.27657 11.0898C2.34972 11.668 3.57614 11.9999 4.88204 12C6.18725 12 7.41277 11.6684 8.48555 11.0908C8.3373 9.22892 6.782 7.76377 4.88204 7.76367Z" transform="translate(2.0348 1.3682)" fill-rule="evenodd" clip-rule="evenodd"/>
<path d="M12.632 5C12.9809 5.00011 13.2637 5.28297 13.2639 5.63184C13.2638 5.98072 12.9809 6.26357 12.632 6.26367L8.63204 6.26367C8.28325 6.26345 8.00031 5.98065 8.0002 5.63184C8.00033 5.28304 8.28326 5.00022 8.63204 5L12.632 5Z" transform="translate(2.0348 1.3682)"/>
<path d="M4.88204 0C6.47355 0.000105664 7.76374 1.29033 7.76387 2.88184C7.76377 4.47337 6.47357 5.76357 4.88204 5.76367C3.29061 5.76345 2.00031 4.4733 2.0002 2.88184C2.00033 1.2904 3.29062 0.00021974 4.88204 0ZM4.88204 1.26367C3.98871 1.26389 3.26401 1.98849 3.26387 2.88184C3.26398 3.77521 3.98869 4.49978 4.88204 4.5C5.77548 4.49989 6.5001 3.77528 6.5002 2.88184C6.50007 1.98842 5.77546 1.26378 4.88204 1.26367Z" transform="translate(2.0348 1.3682)" fill-rule="evenodd" clip-rule="evenodd"/>
</svg>
